<?xml version="1.0" encoding="utf-8"?>
<!-- Generator: Adobe Illustrator 23.0.3, SVG Export Plug-In . SVG Version: 6.00 Build 0)  -->
<svg version="1.1" id="Layer_1" xmlns="http://www.w3.org/2000/svg" xmlns:xlink="http://www.w3.org/1999/xlink" x="0px" y="0px"
	 viewBox="0 0 257.3 334" style="enable-background:new 0 0 257.3 334;" xml:space="preserve">
<style type="text/css">
	.st0{fill:#231F20;}
</style>
<g>
	<path class="st0" d="M99.8,0h8.9c6.2,2.4,12.2,5.8,17.6,9.6c1.7,7.3,4.8,15.1,2.2,22.6c-2.2,2.1-5.3,2.9-8,4.2
		c0.3,2.9,0.8,5.8,1.2,8.6c5.1-0.4,10-1.8,15.1-2.7c0.7-3,0.9-6.2,2.8-8.8c0.4,2,0.7,4.1,1,6.1c2.7,1.6,5.3,3.8,8.6,3.4
		c21,0,42-0.1,63,0c2.3-0.2,3.4,2.3,5,3.5c0-4.5,0-8.9,0.2-13.4c0.6,0,1.9,0,2.5,0c0.1,3.9-0.3,7.9,0.8,11.8
		c1.2,0.3,2.4,0.3,3.6,0.5c0.1,1.5,0.1,3.1,0.2,4.6c6.5,0.2,13,0.6,19.4-0.5c4.3-0.7,8.7-0.2,13-0.2c0.1,1.5,0.2,3,0.5,4.6
		c-5.4,0.4-10.8,0.8-16.1-0.1c-8.5-1-17.1,0.8-25.6,0.3c-0.3,1.2-0.6,2.3-0.8,3.5c-8.2,0.1-16.4,0-24.6,0c-2.7-0.1-5.7,0.5-7.4,2.8
		c-2.4,3-5.3,5.6-7.7,8.7c-0.8,5.7,1.5,11.1,2.7,16.5c-1.9,0.7-3.9,1.4-5.8,2.1c-2,6.1-1.2,13.9-6.8,18.2c-3.1,2.3-5.8,5.2-9.3,6.9
		c-2.6,1.2-5.3-0.1-7.9-0.4c-9.6-1.5-17.6-7.4-26.2-11.5c-0.6,2.3-1.2,4.6-1.8,6.9c2.6,1.7,6,3.1,6.8,6.4c1.3,4.9,0.2,10,0,14.9
		c-0.4,4.5-0.5,9.1-1,13.6c-0.4,4.4-3,8.2-5.6,11.6c-2.5-0.6-4.8-1.3-7.3-1.9c-2.6,5.6-0.4,12.6,3.9,16.7
		c11.2,12.2,17.2,27.8,22.9,43.1c1,3.2,4.3,5.1,4.8,8.5c0.9,3.6,2.3,7.2,2,11c-0.4,6.6-0.9,13.3-1.6,19.9c-0.5,4.8-2.3,9.7-1.2,14.6
		c0.8,4,1.3,8.2-0.2,12.1c-2,4.9-2,10.3-2,15.5c0.1,3.4,0.3,7.2,2.7,9.9c2.8,3.5,5.6,7.1,8.9,10c4.2,2.7,9.9,2.8,13.3,6.7
		c1.1,2.2,0.3,4.7,0.3,7c-10.8,1.6-22.2,1.8-32.7-1.6c-5.9-1.9-12.5,1.4-18.2-1.9c0.3-6.8,2-13.4,4.3-19.8c1-4.7-0.1-9.6-0.2-14.4
		c-0.1-4.1-2.2-7.8-3-11.8c-2.3-8.5-3-17.4-3.4-26.2c-0.5-4.3,3.2-7.6,3.3-11.8c0.8-3.8,0.2-7.6-2.1-10.7c-4-0.1-9.5,0.9-11.7-3.4
		c-4.7-7-9.3-14.1-14-21c-1.6-3-5.6-2.3-8.3-3.6c-2.4-2.2-3.6-5.4-5.1-8.2c-0.9,3.2-2.1,6.5-4.5,8.9c-3.8,3.8-5.1,9.1-7.1,13.9
		c-1.4,3.5-2.6,7.1-3.1,10.8c-0.5,2.8-0.7,6.1-3.2,7.9c-3.7,2.8-5,7.5-8.4,10.6c-2.5,2.4-4.1,5.7-4.9,9c-0.3,3,0.6,6.1-0.2,9
		c-1.4,5.4-4.4,10.2-6.6,15.4c-1.6,3.6-2.4,7.5-4.1,11c-1.1,2.5-4.1,3.3-5.7,5.3c-4.6,8-6.1,17.6-4.5,26.6c1.3,3.6,2.3,7.4,1.5,11.2
		c-2.8,0.4-5.7,0.9-8.5,1.1H7.8c-2.3-0.5-4.7-0.8-6.8-1.9c-1.6-4.9-1.3-10.3,0.1-15.2c2.1-7.4,4-14.9,5.8-22.3
		c1.3-3.6-1.7-6.9-1.5-10.6c-0.3-5.4,3-9.8,5.4-14.3c2.3-4,1.5-8.8,3-13c3.5-9.1,10.3-16.6,14.3-25.5c1.2-3.6-0.1-7.5,0.1-11.2
		c0.3-7.1,1.7-14.1,2.9-21.1c0.4-2.7,1.3-5.5,0.2-8.2c-1.1-3.2-1.9-6.5-1.5-9.9c0.5-3.1-1.4-6.2-0.2-9.2c0.6-2.6,3-4,4.9-5.6
		c0.3-10.6-3.5-20.9-1.9-31.5c1.8-2.3,4.8-3.1,7.4-4.3c-3.8-0.8-7.5-1.6-11.3-2.4c-0.2-4.3,0.4-8.5,1.3-12.6
		c1.4-6.5,0.6-13.2,1.7-19.7c0.2-1.7,2-2.2,3.4-2.3c3.4-0.3,6.9-0.4,10.2-1.2c-1-8.3-1.8-16.7,0-24.9c1.8-9.7,6.1-19.5,14.3-25.5
		c5.6-3.8,13.7-6,19.5-1.5c0.5-0.3,1.4-1,1.9-1.3c-3.4-9.2-2.7-19.8,2.8-28C87.5,5.1,93.7,1.9,99.8,0 M154.7,63.1
		c-0.3,2.4-1,4.8-3.4,5.9c3.1-0.2,6.2-0.2,9.2-0.8c-0.1-1.8-0.1-3.5-0.2-5.3C158.4,62.9,156.6,63,154.7,63.1 M148.4,69.9
		c-0.3,0.3-0.8,1-1,1.3c0.5,3.3,2.9,5.9,4.5,8.7c2.4-3.3,4.8-6.6,7-10C155.4,69.7,151.8,69.5,148.4,69.9L148.4,69.9z"/>
</g>
</svg>
