<svg height="512pt" viewBox="-60 0 512 512" width="512pt" xmlns="http://www.w3.org/2000/svg"><path d="m392.519531 479.734375c0-29.347656-23.875-53.226563-53.222656-53.226563h-64.023437l-15.035157 42.746094 15.035157 42.746094h117.246093zm0 0" fill="#282828"/><path d="m275.230469 426.507812h-78.96875l-10.664063 42.648438 10.664063 42.84375h79.011719v-85.492188zm0 0" fill="#e1f0f5"/><path d="m36.695312 429.132812c-21.28125 6.96875-36.695312 27.019532-36.695312 50.601563v32.265625h110.347656l6.898438-85.492188zm0 0" fill="#4f4f4f"/><path d="m196.261719 426.507812h-79.015625l28.867187 44.648438 47.128907 40.84375h3.019531zm0 0" fill="#f9fcfd"/><path d="m317.234375 74.742188c-30.945313-33.945313-75.039063-53.417969-120.972656-53.417969l-10.664063 138.617187 10.664063 111.488282h156.398437l6.601563-71.300782c4.238281-45.742187-11.078125-91.441406-42.027344-125.386718zm0 0" fill="#99501c"/><path d="m196.261719 21.324219c-45.9375 0-90.03125 19.46875-120.976563 53.414062-30.945312 33.949219-46.265625 79.648438-42.027344 125.390625l6.601563 71.300782h156.402344zm0 0" fill="#b56a35"/><path d="m329.105469 234.746094-53.667969-100.0625-14.121094 11.730468c-19.582031 16.269532-41.46875 24.515626-65.054687 24.515626l-10.664063 116.964843 10.664063 170.601563 78.96875-31.988282v-34.320312h6.332031c29.347656 0 53.222656-23.875 53.222656-53.226562v-7.296876c20.808594-5.949218 36.082032-25.136718 36.082032-47.824218 0-24.707032-18.121094-45.269532-41.761719-49.09375zm0 0" fill="#ffbfab"/><path d="m196.261719 170.929688c-23.589844 0-45.476563-8.246094-65.058594-24.515626l-14.117187-11.730468-53.671876 100.066406c-23.644531 3.824219-41.761718 24.382812-41.761718 49.089844 0 22.6875 15.277344 41.875 36.082031 47.824218v7.296876c0 29.351562 23.875 53.226562 53.226563 53.226562h6.328124v34.320312l78.972657 31.988282zm0 0" fill="#ffcebf"/><path d="m304.886719 181.265625h29.988281v74.640625h-29.988281zm0 0" fill="#99501c"/><path d="m57.644531 181.265625h29.988281v74.640625h-29.988281zm0 0" fill="#b56a35"/><path d="m348.863281 125.953125-16.613281-110.957031-65.964844 15.859375-70.023437-30.855469-10.664063 74.636719 10.664063 51.316406zm0 0" fill="#fdae02"/><path d="m126.203125 30.828125-65.421875-15.832031-17.214844 110.957031h152.695313v-125.953125zm0 0" fill="#fdcb02"/><path d="m135.089844 234.148438h28.675781v29.988281h-28.675781zm0 0" fill="#673416"/><path d="m228.753906 234.148438h28.675782v29.988281h-28.675782zm0 0" fill="#4d2711"/><path d="m221.386719 293.621094-1.238281 2.574218c-4.386719 9.125-13.765626 15.023438-23.886719 15.023438l-10.664063 19.324219 10.664063 10.664062c21.578125 0 41.566406-12.570312 50.914062-32.019531l1.238281-2.574219zm0 0" fill="#e1f0f5"/><path d="m172.371094 296.199219-1.238282-2.578125-27.027343 12.992187 1.238281 2.578125c9.351562 19.449219 29.335938 32.015625 50.917969 32.015625v-29.988281c-10.125 0-19.503907-5.898438-23.890625-15.019531zm0 0" fill="#f9fcfd"/><path d="m117.25 426.507812h-64.023438c-5.769531 0-11.320312.933594-16.527343 2.640626l73.648437 82.851562h82.894532zm0 0" fill="#fdcb02"/></svg>