<svg height="512pt" viewBox="-97 0 512 512" width="512pt" xmlns="http://www.w3.org/2000/svg"><path d="m303 287.546875-92.40625 13.859375 13.859375-92.40625h-65.453125l-10.667969 143 10.667969 145h65.453125l-13.859375-92.40625 92.40625 13.859375zm0 0" fill="#ff7300"/><path d="m93.546875 209 13.859375 92.40625-92.40625-13.859375v130.90625l92.40625-13.859375-13.859375 92.40625h65.453125v-288zm0 0" fill="#ff9d00"/><path d="m227.332031 171c0-37.679688-30.652343-68.332031-68.332031-68.332031l-10.664062 15 10.664062 15c21.136719 0 38.332031 17.195312 38.332031 38.332031s-17.195312 38.332031-38.332031 38.332031l-10.664062 15 10.664062 15c37.679688 0 68.332031-30.652343 68.332031-68.332031zm0 0" fill="#ff7300"/><path d="m159 209.332031c-21.136719 0-38.335938-17.195312-38.335938-38.332031s17.199219-38.332031 38.335938-38.332031v-30c-37.679688 0-68.335938 30.652343-68.335938 68.332031s30.65625 68.332031 68.335938 68.332031zm0 0" fill="#ff9d00"/><path d="m127 0-10.667969 53.332031 10.667969 96.636719 32 16.171875 10.667969-112.808594-10.667969-53.332031zm0 0" fill="#f0f5f7"/><path d="m159 0v166.140625l32-16.167969 10.667969-85.972656-10.667969-64zm0 0" fill="#d9e7ec"/><path d="m18.332031 0v95.066406l108.667969 54.902344v-149.96875zm0 0" fill="#ff4b00"/><path d="m299.667969 0h-108.667969v149.972656l108.667969-54.90625zm0 0" fill="#f00000"/><path d="m318 270.128906-89.5625 13.433594 13.433594-89.5625h-82.871094l-10.667969 19.332031 10.667969 10.667969h48.035156l-14.285156 95.25 95.25-14.285156v96.070312l-95.25-14.285156 14.285156 95.25h-48.035156l-10.667969 19.332031 10.667969 10.667969h82.871094l-13.433594-89.5625 89.5625 13.433594zm0 0" fill="#fdae02"/><path d="m110.964844 482 14.285156-95.25-95.25 14.285156v-96.070312l95.25 14.285156-14.285156-95.25h48.035156v-30h-82.871094l13.433594 89.5625-89.5625-13.433594v165.742188l89.5625-13.433594-13.433594 89.5625h82.871094v-30zm0 0" fill="#fdcb02"/><path d="m227.332031 353c0-37.679688-30.652343-68.332031-68.332031-68.332031l-10.664062 15 10.664062 15c21.136719 0 38.332031 17.195312 38.332031 38.332031s-17.195312 38.332031-38.332031 38.332031l-10.664062 15 10.664062 15c37.679688 0 68.332031-30.652343 68.332031-68.332031zm0 0" fill="#fddc46"/><path d="m159 391.332031c-21.136719 0-38.335938-17.195312-38.335938-38.332031s17.199219-38.332031 38.335938-38.332031v-30c-37.679688 0-68.335938 30.652343-68.335938 68.332031s30.65625 68.332031 68.335938 68.332031zm0 0" fill="#fce270"/></svg>