<svg xmlns="http://www.w3.org/2000/svg" viewBox="0 0 512 512">
  <path fill="#8f8f8f" d="M241 321h-90v-90h90v90z"/>
  <path fill="#606060" d="M331 206h-30c0-24.813-20.187-45-45-45h-15V0h32.336L351 99.854V201h-15c-2.757 0-5 2.243-5 5z"/>
  <path fill="#a3a3a3" d="M361 321h-90v-29.871a10.01 10.01 0 00-3.142-7.324c-2.132-2.026-4.976-3.058-7.966-2.904l-.391.019c-20.702.947-40.339-6.391-55.296-20.676C189.241 245.952 181 226.688 181 206c0-2.757-2.243-5-5-5h-15V99.854L238.664 0H271v132.482c14.891 2.994 28.479 10.452 39.244 21.724 14.285 14.958 21.628 34.603 20.675 55.317a74.318 74.318 0 01-1.061 9.545c-.712 4.021 1.085 6.892 2.22 8.245 1.154 1.376 3.716 3.687 7.9 3.687H361v90z"/>
  <path fill="#8f8f8f" d="M332.078 227.313c-1.135-1.354-2.932-4.224-2.22-8.245a74.536 74.536 0 001.061-9.545c.953-20.714-6.39-40.359-20.675-55.317-10.766-11.272-24.354-18.729-39.244-21.724V0h-15v280.993a78.898 78.898 0 003.502-.073l.391-.019c2.99-.154 5.834.878 7.966 2.904a10.014 10.014 0 013.142 7.324V321h90v-90H339.98c-4.186 0-6.748-2.31-7.902-3.687z"/>
  <circle cx="256" cy="206" r="15" fill="#e8e8e8"/>
  <path fill="#ffaa19" d="M332.429 512c-13.602 0-26.252-6.049-34.707-16.596-8.321-10.381-11.44-23.757-8.556-36.699 8.177-36.695 5.46-74.702-7.858-109.912L271 321.541V291h90v25.057l8.368 22.123c15.393 40.696 18.533 84.63 9.079 127.05l-2.755 12.364C371.249 497.531 353.054 512 332.429 512z"/>
  <path fill="#ffca2c" d="M179.571 512c-20.625 0-38.82-14.469-43.264-34.404l-2.755-12.367c-9.454-42.419-6.313-86.353 9.079-127.049L151 316.057V291h90v30.541l-10.308 27.252c-13.318 35.21-16.035 73.217-7.858 109.912 2.885 12.942-.234 26.319-8.556 36.7C205.823 505.951 193.173 512 179.571 512z"/>
  <path fill="#bfbfbf" d="M271 206c0-8.284-6.716-15-15-15v30c8.284 0 15-6.716 15-15z"/>
</svg>
