<svg xmlns="http://www.w3.org/2000/svg" viewBox="0 0 512 512">
  <path fill="#ff9100" d="M325 408.199l-69 30-69-30c9-33.6 11.4-70 7.8-104.801l-17.401-11.1 12.9-18.3-6-29.399 54.6-5.4-.601-.3 17.702 1.2 71.7 4.501-6 29.399 19.799 15.601-24.3 13.799c-3.6 34.801-1.199 71.2 7.801 104.8z"/>
  <path fill="#ff641a" d="M325 408.199l-69 30v-198.1l71.7 4.501-6 29.399 19.799 15.601-24.3 13.799c-3.6 34.801-1.199 71.2 7.801 104.8z"/>
  <path fill="#fdbf00" d="M442 111.7c-4.5-9-10.2-17.4-17.4-24.3-15-15-35.099-23.101-55.499-24.901C344.2 24.399 301.601 0 256 0s-88.2 24.399-113.101 62.5C122.5 64.3 102.4 72.4 87.4 87.4c-11.1 11.1-19.2 24.899-23.401 39.899C43.9 137.5 31 157.899 31 181c0 32.999 27.001 60 60 60 9.3 0 18.6-2.1 26.7-6.301 16.199 6.301 34.2 8.101 51.299 4.501C193.299 259.9 223.9 271 256 271s62.701-11.1 87.001-31.8c22.798 4.499 46.8.3 65.999-12.001 5.7 1.8 11.7 2.401 17.701 2.401 32.999 0 60-26.7 60-60C486.7 142 468.1 118.599 442 111.7z"/>
  <path fill="#ff9100" d="M486.7 169.6c0 33.3-27.001 60-60 60-6 0-12.001-.601-17.701-2.401-19.199 12.301-43.2 16.5-65.999 12.001-24.299 20.7-54.9 31.8-87 31.8V0c45.601 0 88.2 24.399 113.101 62.5C389.5 64.3 409.6 72.4 424.6 87.4c7.2 6.899 12.9 15.3 17.401 24.3C468.1 118.599 486.7 142 486.7 169.6z"/>
  <path fill="#ff641a" d="M241 301h30v91h-30z"/>
  <path fill="#f03800" d="M256 301h15v91h-15z"/>
  <path fill="#fdbf00" d="M451 392h30v30h-30z"/>
  <path fill="#ffda2d" d="M31 422h30v30H31z"/>
  <path fill="#fdbf00" d="M451 492.499V497H61v-4.501c0-38.101 30.3-69 68.101-70.499 10.499-18.3 30.3-30 51.899-30 14.099 0 27.001 5.099 37.5 13.799C228.701 397.4 241.601 392 256 392s27.299 5.4 37.5 13.799C303.999 397.099 316.901 392 331 392c21.599 0 41.4 11.7 51.899 30C420.7 423.5 451 454.399 451 492.499z"/>
  <path fill="#ff9100" d="M451 492.499V497H256V392c14.399 0 27.299 5.4 37.5 13.799C303.999 397.099 316.901 392 331 392c21.599 0 41.4 11.7 51.899 30C420.7 423.5 451 454.399 451 492.499z"/>
  <path fill="#ffda2d" d="M0 482h512v30H0z"/>
  <path fill="#fdbf00" d="M256 482h256v30H256zM421 316c0 27.599-55.8 38.399-104.399 42.299C291.7 360.7 268.9 361 256 361s-35.7-.3-60.601-2.701C146.8 354.399 91 343.599 91 316c0-8.401 0-33.001 99.3-42.001l.901 3.9c1.8 8.699 2.999 17.1 3.898 25.8-35.4 3.001-56.1 8.401-66.599 12.301 12.001 4.2 35.099 9.6 68.101 12.299C213.701 330.099 233.5 331 256 331s42.299-.901 59.399-2.701C348.4 325.6 371.499 320.2 383.5 316c-10.499-3.9-31.199-9.3-66.599-12.301.899-8.699 2.098-17.1 3.898-25.8l.901-3.9c99.3 9 99.3 33.6 99.3 42.001z"/>
  <path fill="#ff9100" d="M421 316c0 27.599-55.8 38.399-104.399 42.299C291.7 360.7 268.9 361 256 361v-30c22.5 0 42.299-.901 59.399-2.701C348.4 325.6 371.499 320.2 383.5 316c-10.499-3.9-31.199-9.3-66.599-12.301.899-8.699 2.098-17.1 3.898-25.8l.901-3.9c99.3 9 99.3 33.6 99.3 42.001z"/>
</svg>
