<svg height="512pt" viewBox="-62 0 512 512" width="512pt" xmlns="http://www.w3.org/2000/svg"><path d="m120.5 0-11.664062 53.332031 11.664062 260.667969h73.667969l10.667969-260.667969-10.667969-53.332031zm0 0" fill="#f0f5f7"/><path d="m45.835938 0h74.664062v314h-74.664062zm0 0" fill="#ff4b00"/><path d="m267.835938 0h-73.667969v314h73.667969l11.664062-250zm0 0" fill="#d9e7ec"/><path d="m267.835938 0h74.664062v314h-74.664062zm0 0" fill="#f00000"/><path d="m194.167969 123.667969-10.667969 196.332031 10.667969 192c107.0625 0 194.167969-87.101562 194.167969-194.167969 0-107.0625-87.105469-194.164062-194.167969-194.164062zm0 0" fill="#fdae02"/><path d="m0 317.832031c0 107.066407 87.101562 194.167969 194.167969 194.167969v-388.332031c-107.066407 0-194.167969 87.101562-194.167969 194.164062zm0 0" fill="#fdcb02"/><path d="m194.167969 153.667969-10.667969 166.332031 10.667969 162c90.519531 0 164.167969-73.644531 164.167969-164.167969 0-90.519531-73.648438-164.164062-164.167969-164.164062zm0 0" fill="#ff7300"/><path d="m30 317.832031c0 90.523438 73.644531 164.167969 164.167969 164.167969v-328.332031c-90.523438 0-164.167969 73.644531-164.167969 164.164062zm0 0" fill="#ff9d00"/><path d="m264.355469 339.167969 46.570312-60.757813-73.378906-21.753906-43.378906-63.53125-10.667969 41.542969 10.667969 11.867187 24.675781 35.863282 41.730469 12.386718-26.480469 34.550782 1.105469 43.089843.011719.425781-41.042969-14.507812-10.667969 14.988281 10.667969 16.828125 72.125 25.5-1.929688-76.117187zm0 0" fill="#fddc46"/><path d="m153.125 372.851562 1.117188-43.515624-26.484376-34.550782 41.734376-12.386718 24.675781-35.863282v-53.410156l-43.378907 63.53125-73.25 21.738281 46.441407 60.773438-1.949219 75.851562 72.136719-24.859375v-31.816406zm0 0" fill="#fce270"/></svg>