<svg height="512pt" viewBox="-31 0 512 512" width="512pt" xmlns="http://www.w3.org/2000/svg"><path d="m249.078125 0-126.410156 292.667969h200.390625l126.410156-292.667969zm0 0" fill="#006df4"/><path d="m326.800781 292.667969-102.066406-236.308594-10.667969 114.308594 10.667969 122zm0 0" fill="#008cf7"/><path d="m0 0 126.410156 292.667969h98.324219v-236.308594l-24.34375-56.359375zm0 0" fill="#009ef9"/><path d="m224.734375 123.667969-10.667969 196.332031 10.667969 192c107.0625 0 194.167969-87.101562 194.167969-194.167969 0-107.0625-87.105469-194.164062-194.167969-194.164062zm0 0" fill="#fdae02"/><path d="m30.566406 317.832031c0 107.066407 87.105469 194.167969 194.167969 194.167969v-388.332031c-107.0625 0-194.167969 87.101562-194.167969 194.164062zm0 0" fill="#fdcb02"/><path d="m224.734375 153.667969-10.667969 166.332031 10.667969 162c90.523437 0 164.167969-73.644531 164.167969-164.167969 0-90.519531-73.644532-164.164062-164.167969-164.164062zm0 0" fill="#ff7300"/><path d="m60.566406 317.832031c0 90.523438 73.644532 164.167969 164.167969 164.167969v-328.332031c-90.523437 0-164.167969 73.644531-164.167969 164.164062zm0 0" fill="#ff9d00"/><path d="m121.132812 396.628906c-17.378906-22.820312-26.566406-50.070312-26.566406-78.796875 0-28.726562 9.1875-55.972656 26.566406-78.792969l23.867188 18.175782c-13.367188 17.550781-20.433594 38.511718-20.433594 60.617187s7.066406 43.066407 20.433594 60.617188zm0 0" fill="#fdcb02"/><path d="m328.332031 396.628906-23.863281-18.179687c13.367188-17.550781 20.433594-38.511719 20.433594-60.613281 0-22.105469-7.066406-43.066407-20.433594-60.617188l23.863281-18.179688c17.382813 22.820313 26.566407 50.066407 26.566407 78.796876.003906 28.726562-9.183594 55.972656-26.566407 78.792968zm0 0" fill="#fdae02"/><path d="m224.734375 301.816406-10.667969 18.183594 10.667969 14.023438c7.902344 1.800781 13.53125 3.785156 13.53125 8.082031 0 3.761719-3.613281 6.023437-13.53125 6.214843l-10.667969 14.347657 10.667969 32.246093h13.53125v-18.203124c25.417969-4.429688 38.210937-19.84375 38.210937-37.558594 0-30.695313-33.402343-33.082032-51.742187-37.335938zm0 0" fill="#fddc46"/><path d="m227.933594 287.328125c10.003906 0 20.664062 2.789063 31.976562 8.527344l11.648438-28.042969c-9.351563-5.246094-21.15625-8.363281-33.292969-9.511719v-17.546875h-13.53125l-10.667969 25.914063 10.667969 20.769531c.996094-.066406 2.046875-.109375 3.199219-.109375zm0 0" fill="#fddc46"/><g fill="#fce270"><path d="m223.339844 348.339844c-12.628906 0-27.058594-4.101563-37.882813-10.496094l-12.464843 28.207031c9.839843 6.066407 25.75 10.496094 42.148437 11.480469v17.382812h9.59375v-46.59375c-.457031.007813-.910156.019532-1.394531.019532zm0 0"/><path d="m215.140625 258.628906c-26.898437 3.773438-40.34375 19.351563-40.34375 37.882813 0 30.0625 31.296875 33.269531 49.9375 37.511719v-32.207032c-6.9375-1.613281-11.726563-3.488281-11.726563-7.269531 0-3.539063 2.929688-6.535156 11.726563-7.109375v-46.683594h-9.59375zm0 0"/></g></svg>