<svg height="512pt" viewBox="0 0 512 512" width="512pt" xmlns="http://www.w3.org/2000/svg"><path d="m437.019531 74.980469c-48.351562-48.351563-112.640625-74.980469-181.019531-74.980469l-21.332031 266.667969 21.332031 245.332031c68.378906 0 132.667969-26.628906 181.019531-74.980469 48.351563-48.351562 74.980469-112.640625 74.980469-181.019531s-26.628906-132.667969-74.980469-181.019531zm0 0" fill="#4f4f4f"/><path d="m74.980469 74.980469c-48.351563 48.351562-74.980469 112.640625-74.980469 181.019531s26.628906 132.667969 74.980469 181.019531c48.351562 48.351563 112.640625 74.980469 181.019531 74.980469v-512c-68.378906 0-132.667969 26.628906-181.019531 74.980469zm0 0" fill="#666"/><path d="m256 437.332031c98.679688 0 178.945312-78.820312 181.277344-176.9375l-181.277344-15.0625-10.667969 106.667969zm0 0" fill="#006df4"/><path d="m256 437.332031v-192l-181.277344 15.0625c2.332032 98.117188 82.597656 176.9375 181.277344 176.9375zm0 0" fill="#ff4b00"/><path d="m437.277344 260.394531c.035156-1.460937.058594-2.925781.058594-4.394531 0-100.148438-81.1875-181.335938-181.335938-181.335938l-10.664062 74.667969 10.664062 111.0625zm0 0" fill="#f00000"/><path d="m256 74.667969c-100.148438 0-181.332031 81.183593-181.332031 181.332031 0 1.46875.019531 2.933594.054687 4.394531h181.277344zm0 0" fill="#009ef9"/><path d="m323.882812 188.117188c-18.132812-18.132813-42.242187-28.117188-67.882812-28.117188l-8 100 8 92c25.640625 0 49.75-9.984375 67.882812-28.117188 18.132813-18.132812 28.117188-42.242187 28.117188-67.882812 0-25.644531-9.984375-49.75-28.117188-67.882812zm0 0" fill="#4f4f4f"/><path d="m188.117188 188.117188c-18.132813 18.132812-28.117188 42.238281-28.117188 67.882812 0 25.640625 9.984375 49.75 28.117188 67.882812 18.132812 18.132813 42.242187 28.117188 67.882812 28.117188v-192c-25.640625 0-49.75 9.984375-67.882812 28.117188zm0 0" fill="#666"/><path d="m278.628906 233.371094c-6.046875-6.042969-14.082031-9.371094-22.628906-9.371094l-2.667969 33.332031 2.667969 30.667969c8.546875 0 16.582031-3.328125 22.628906-9.371094 6.042969-6.046875 9.371094-14.082031 9.371094-22.628906s-3.328125-16.582031-9.371094-22.628906zm0 0" fill="#d9e7ec"/><path d="m233.371094 233.371094c-6.042969 6.046875-9.371094 14.082031-9.371094 22.628906s3.328125 16.582031 9.371094 22.628906c6.046875 6.042969 14.082031 9.371094 22.628906 9.371094v-64c-8.546875 0-16.582031 3.328125-22.628906 9.371094zm0 0" fill="#f0f5f7"/><path d="m256 58.320312-10.667969 16.347657 10.667969 13.652343c92.460938 0 167.679688 75.21875 167.679688 167.679688s-75.21875 167.679688-167.679688 167.679688l-10.667969 13.65625 10.667969 16.34375c109.003906 0 197.679688-88.679688 197.679688-197.679688s-88.675782-197.679688-197.679688-197.679688zm0 0" fill="#d9e7ec"/><path d="m88.320312 256c0-92.460938 75.21875-167.679688 167.679688-167.679688v-30c-109.003906 0-197.679688 88.679688-197.679688 197.679688s88.675782 197.679688 197.679688 197.679688v-30c-92.460938 0-167.679688-75.21875-167.679688-167.679688zm0 0" fill="#f0f5f7"/><path d="m256 145-10.667969 15 10.667969 15c44.664062 0 81 36.335938 81 81s-36.335938 81-81 81l-10.667969 15 10.667969 15c61.207031 0 111-49.792969 111-111 0-61.203125-49.792969-111-111-111zm0 0" fill="#d9e7ec"/><path d="m175 256c0-44.664062 36.335938-81 81-81v-30c-61.207031 0-111 49.792969-111 111s49.792969 111 111 111v-30c-44.664062 0-81-36.335938-81-81zm0 0" fill="#f0f5f7"/><path d="m152.644531 131.429688-13.976562 7.238281-7.238281 13.976562 76.628906 76.628907 15.941406-5.273438 5.273438-15.941406zm0 0" fill="#ff9d00"/><path d="m266.605469 245.394531-37.332031-37.335937-21.210938 21.214844 37.332031 37.332031c2.925781 2.929687 6.765625 4.394531 10.605469 4.394531s7.679688-1.464844 10.605469-4.394531c5.859375-5.855469 5.859375-15.355469 0-21.210938zm0 0" fill="#ff4b00"/><path d="m51.390625 30.179688-30.117187-30.1210942-21.2148442 21.2148442 30.1210942 30.117187-30.1718755 30.171875 58.5859375 58.585938 72.835938 12.496093zm0 0" fill="#ff4b00"/><path d="m140.148438 58.59375-58.585938-58.5859375-51.382812 51.3828125 101.25 101.253906 21.214843-21.214843zm0 0" fill="#f00000"/></svg>