<svg height="512pt" viewBox="-25 0 512 512" width="512pt" xmlns="http://www.w3.org/2000/svg"><path d="m462.832031 47.816406h-142.832031v137.851563h142.832031l-25.605469-68.925781zm0 0" fill="#f00000"/><path d="m367 143.617188-29.523438 29.523437v-45.140625zm0 0" fill="#bd0000"/><path d="m197 86.066406c-26.230469 2.40625-51.515625 10.878906-73.894531 24.902344-1.066407.667969-2.125 1.34375-3.171875 2.035156-18.347656 12.074219 44.140625 87.378906 77.070312 124.855469v-151.792969zm0 0" fill="#ffd2a7"/><path d="m378.859375 223.378906c-14.382813-78.433594-83.707031-137.992187-166.238281-138.042968h-.109375c-1.171875 0-2.339844.035156-3.511719.058593v165.9375c4.375 4.84375 7 7.667969 7 7.667969s164.675781-25.699219 162.859375-35.621094zm0 0" fill="#ffc186"/><path d="m216 0-24 143.617188h175v-143.617188zm0 0" fill="#ff4b00"/><path d="m186 0h30v234h-30zm0 0" fill="#99501c"/><path d="m370.261719 236.847656-154.261719 8.488282-14 91.664062 14 175h121.238281v-30.726562c0-55.359376 10.871094-111.140626 32.308594-165.796876 7.675781-19.574218 11.5625-40.910156 11.574219-62.097656zm0 0" fill="#006df4"/><path d="m95.246094 132.796875c-13.515625 13.0625-24.65625 28.148437-33.1875 44.96875-5.332032 10.511719-62.058594 153.457031-62.058594 153.457031h43.890625v117.339844h70.226563l10 15.105469-10 14.832031v33.5h101.882812v-266.667969zm0 0" fill="#009ef9"/><path d="m380.242188 236.847656-1.382813-13.46875h-112.238281c-17.40625 0-34.480469-2.890625-50.621094-8.460937l-9 14.414062 9 17.035157c16.328125 4.628906 33.339844 7.011718 50.621094 7.011718h114.5c-.019532-5.429687-.308594-10.988281-.878906-16.53125zm0 0" fill="#f09b59"/><path d="m182.335938 198.472656c-25.230469-16.4375-44.378907-39.554687-55.394532-66.894531-.046875-.113281-.09375-.226563-.136718-.335937l-6.875-18.238282-10.445313 7.851563c-2.738281 2.335937-11.660156 9.464843-14.230469 11.949219l3.917969 10.171874.105469.214844c13.328125 32.875 36.378906 60.671875 66.675781 80.417969 15.53125 10.117187 32.390625 17.75 50.046875 22.757813v-31.449219c-11.800781-4.070313-23.105469-9.5625-33.664062-16.445313zm0 0" fill="#ffaf70"/><path d="m246.335938 425.164062h-30c0 1.332032-.121094 2.632813-.335938 3.90625l-7.332031 35.261719 7.332031 8.945313c17.925781-8.605469 30.335938-26.9375 30.335938-48.113282zm0 0" fill="#0150c0"/><path d="m192.996094 448.5h-78.996094v30h78.996094c8.234375 0 16.035156-1.878906 23.003906-5.222656v-44.207032c-1.863281 11.011719-11.464844 19.429688-23.003906 19.429688zm0 0" fill="#006df4"/></svg>