<svg height="512pt" viewBox="0 0 512 512" width="512pt" xmlns="http://www.w3.org/2000/svg"><path d="m256 247.003906-10.667969 63.433594 10.667969 61.792969h81.054688l3.285156-10.53125c2.65625-8.507813 4.003906-17.375 4.003906-26.351563 0-48.710937-39.628906-88.34375-88.34375-88.34375zm0 0" fill="#006df4"/><path d="m167.65625 335.347656c0 8.976563 1.347656 17.84375 4.003906 26.351563l3.285156 10.53125h81.054688v-125.226563c-48.714844 0-88.34375 39.632813-88.34375 88.34375zm0 0" fill="#009ef9"/><path d="m256 139.769531-10.667969 74.667969 10.667969 72.808594c40.660156 0 73.738281-33.078125 73.738281-73.734375 0-40.660157-33.078125-73.742188-73.738281-73.742188zm0 0" fill="#ffc186"/><path d="m182.261719 213.507812c0 40.660157 33.078125 73.738282 73.738281 73.738282v-147.476563c-40.660156 0-73.738281 33.082031-73.738281 73.738281zm0 0" fill="#ffd2a7"/><path d="m473.148438 241c-3.546876-52.492188-25.679688-101.359375-63.234376-138.914062-37.554687-37.554688-86.421874-59.6875-138.914062-63.234376v-38.851562h-15l-10.667969 53.332031 10.667969 53.332031h15v-37.730468c91.542969 7.273437 164.792969 80.523437 172.066406 172.066406h-37.734375v30h37.734375c-7.273437 91.542969-80.523437 164.792969-172.066406 172.066406v-37.734375h-15l-10.667969 53.332031 10.667969 53.335938h15v-38.851562c52.492188-3.546876 101.359375-25.679688 138.914062-63.234376 37.554688-37.558593 59.6875-86.421874 63.234376-138.914062h38.851562v-30zm0 0" fill="#f00000"/><path d="m241 405.332031v37.734375c-91.542969-7.273437-164.792969-80.523437-172.066406-172.066406h37.734375v-30h-37.734375c7.273437-91.542969 80.523437-164.792969 172.066406-172.066406v37.730468h15v-106.664062h-15v38.851562c-52.492188 3.546876-101.359375 25.679688-138.914062 63.234376-37.554688 37.554687-59.6875 86.421874-63.234376 138.914062h-38.851562v30h38.851562c3.546876 52.492188 25.679688 101.355469 63.234376 138.914062 37.554687 37.554688 86.421874 59.6875 138.914062 63.234376v38.851562h15v-106.667969zm0 0" fill="#ff4b00"/></svg>