<svg height="512pt" viewBox="-49 0 512 512" width="512pt" xmlns="http://www.w3.org/2000/svg"><path d="m331.054688 99.699219c-12.570313-57.671875-63.773438-99.699219-124.054688-99.699219l-21.332031 158.179688 21.332031 123.488281h115.832031c50.269531 0 91.167969-40.898438 91.167969-91.167969 0-47.5-36.511719-86.628906-82.945312-90.800781zm0 0" fill="#c3dce6"/><path d="m207 0c-60.28125 0-111.484375 42.027344-124.054688 99.699219-46.433593 4.171875-82.945312 43.300781-82.945312 90.800781 0 50.269531 40.898438 91.167969 91.167969 91.167969h115.832031zm0 0" fill="#e1f0f5"/><path d="m266.667969 192v59.332031h-59.667969l-10.667969 15.335938 10.667969 14.664062h59.667969v45h-59.667969l-10.667969 15 10.667969 15h59.667969v44.667969h-59.667969l-10.667969 15 10.667969 15h59.667969v59.667969h30v-298.667969zm0 0" fill="#f90"/><path d="m147.332031 401v-44.667969h59.667969v-30h-59.667969v-45h59.667969v-30h-59.667969v-59.332031h-30v298.667969h30v-59.667969h59.667969v-30zm0 0" fill="#fdae02"/><path d="m360 482h-153l-10.667969 15 10.667969 15h153zm0 0" fill="#93bf00"/><path d="m54 482h153v30h-153zm0 0" fill="#a8d32a"/></svg>