<svg height="511pt" viewBox="1 -30 511.999 511" width="511pt" xmlns="http://www.w3.org/2000/svg"><path d="m497.589844 66.390625-33.617188 33.621094-147.089844 123.671875-143.183593 120.667968c-68.136719 22.515626-106.660157 65.140626-117.765625 72.644532l-34.921875 33.617187-21.011719-21.011719 34.621094-33.917968c46.828125-55.53125 57.132812-63.339844 57.132812-130.878906v-15.308594c0-130.574219 100.558594-240.441406 225.132813-248.246094 2.402343-.296875 4.503906-.597656 6.902343-.597656 58.535157-2.101563 115.867188 17.707031 161.195313 55.230468zm0 0" fill="#ff7816"/><path d="m497.589844 66.390625-33.617188 33.621094-147.089844 123.671875v-222.433594c2.402344-.296875 4.503907-.597656 6.90625-.597656 58.53125-2.101563 115.867188 17.707031 161.191407 55.230468zm0 0" fill="#ff4b00"/><path d="m463.972656 100.011719-21.617187 21.609375-35.417969 35.421875-90.054688 88.851562-87.648437 86.453125c-9.007813.898438-17.414063 2.703125-25.816406 4.503906-10.507813 2.097657-20.414063 4.5-29.71875 7.503907-14.105469-27.316407-21.910157-57.335938-21.910157-88.554688 0-97.253906 71.742188-178.300781 165.09375-192.710937 9.609376-1.503906 19.8125-2.402344 30.019532-2.402344 42.925781 0 83.449218 13.804688 117.070312 39.324219zm0 0" fill="#ff4b00"/><path d="m463.972656 100.011719-21.617187 21.609375-35.417969 35.421875-90.054688 88.851562v-182.808593c9.605469-1.5 19.8125-2.398438 30.019532-2.398438 42.925781 0 83.449218 13.804688 117.070312 39.324219zm0 0" fill="#cc1e0d"/><path d="m450.164062 169.953125-92.15625 253.046875c-12.90625-8.105469-27.015624-12.308594-41.125-13.507812-57.933593-6.003907-121.269531 33.320312-142.582031 41.421874 24.316407-51.328124 45.328125-49.527343 39.625-119.167968-.902343-12.007813-2.101562-25.515625-2.101562-42.023438v-33.921875c0-64.238281 45.023437-117.96875 105.058593-131.476562 9.609376-2.402344 19.8125-3.601563 30.019532-3.601563 41.722656 0 78.644531 19.511719 103.261718 49.230469zm0 0" fill="#fdbf00"/><path d="m450.164062 169.953125-92.15625 253.046875c-12.90625-8.105469-27.015624-12.308594-41.125-13.507812v-285.167969c9.609376-2.402344 19.8125-3.601563 30.019532-3.601563 41.722656 0 78.644531 19.511719 103.261718 49.230469zm0 0" fill="#ff9f00"/><path d="m512 450.914062-19.8125-3c-6.304688-.902343-16.210938-.300781-26.414062 0-16.210938.902344-34.820313 2.402344-53.734376-.601562-33.015624-4.800781-43.523437-18.011719-54.03125-24.3125l-41.125-58.835938-39.019531-55.832031 4.199219-51.03125c10.507812-12.90625 22.214844-24.3125 34.820312-34.519531 38.125-30.917969 84.652344-49.230469 133.277344-52.828125 7.804688 9.003906 14.109375 18.90625 19.210938 29.714844 7.804687 17.109375 12.609375 36.019531 12.609375 56.132812v15.007813h-57.332031c6 17.410156 22.808593 30.019531 42.320312 30.019531h25.21875zm0 0" fill="#fdbf00"/><path d="m512 450.914062-19.8125-3c-6.304688-.902343-16.210938-.300781-26.414062 0-16.210938.902344-34.820313 2.402344-53.734376-.601562-33.015624-4.800781-43.523437-18.011719-54.03125-24.3125l-41.125-58.835938v-141.382812c38.125-30.917969 84.652344-49.226562 133.28125-52.828125 7.804688 9.003906 14.105469 18.910156 19.210938 29.714844 7.804688 17.113281 12.605469 36.023437 12.605469 56.132812v15.011719h-57.332031c6 17.40625 22.8125 30.015625 42.324218 30.015625h25.214844zm0 0" fill="#ff7816"/><path d="m316.882812 240.792969c-24.914062 0-45.023437 20.109375-45.023437 45.027343 0 24.914063 20.109375 45.023438 45.023437 45.023438 24.917969 0 45.027344-20.109375 45.027344-45.023438 0-24.917968-20.109375-45.027343-45.027344-45.027343zm0 0" fill="#ffd400"/><path d="m361.910156 285.820312c0 24.914063-20.109375 45.023438-45.027344 45.023438v-90.050781c24.917969 0 45.027344 20.109375 45.027344 45.027343zm0 0" fill="#fdbf00"/></svg>